<svg xmlns="http://www.w3.org/2000/svg" xmlns:xlink="http://www.w3.org/1999/xlink" version="1.0" width="160" height="40" viewBox="0 0 240 60" preserveAspectRatio="xMidYMid meet" color-interpolation-filters="sRGB">
  <g fill="#fff">
    <g transform="translate(0,5.457130432128906)">
      <svg x="0" y="0" width="60" height="50.505503949314" filtersec="colorsb6655582173">
        <svg xmlns="http://www.w3.org/2000/svg" xmlns:xlink="http://www.w3.org/1999/xlink" version="1.1" id="图层_1" x="0px" y="0px" viewBox="0.5699999928474426 0.550000011920929 124.43000030517578 104.73999786376953" enable-background="new 0 0 126 107" xml:space="preserve">
          <g>
            <path d="M46.88,0.55L125,105.29H77.09L62.81,86.1l-14.33,19.19H0.57l49.09-65.81l7.92,10.64L25.96,92.55h16.15   l20.7-27.79l20.7,27.79h16.11L38.97,11.19L46.88,0.55z M67.99,14.87L78.68,0.55l7.92,10.64L75.96,25.52L67.99,14.87z" />
          </g>
        </svg>
      </svg>
    </g>
    <g transform="translate(67,10)">
      <g transform="translate(0,0)">
        <g hollow-target="custom">
          <path d="M2.11-34.44L1.88 1.26L28.52 0.04L28.88-25.02L22.42-34.93ZM7.94-4.98L7.35-29.10L19.33-29.64L23.41-23.95L22.42-5.20ZM37.35-23.77L32.29-22.02L42.83 0.81L41.43 6.05L33.68 5.43L33.14 10.54L45.16 10.22L54.75-23.00L49.42-23.72L44.75-6.32ZM57.98 1.66L64.39 1.43L63.72-29.24L83.27-28.74L83.63-34.53L57.71-34.71ZM65.38-14.39L83.05-14.30L82.78-20.49L65.11-19.82ZM88.07 1.61L110.54 1.17L110.90-24.04L87.49-23.45ZM93.72-3.90L93.50-18.03L104.84-17.98L104.57-4.62ZM129.69-24.08L121.93-21.39L121.93-24.30L115.83-24.17L115.52 2.02L122.24 1.75L122.02-15.61L131.30-17.98ZM160.54-24.22L153.95-21.43L153.90-23.72L147.09-24.08L140.94-21.57L140.90-24.30L134.80-24.17L134.53 2.02L141.26 1.75L141.03-15.70L147.89-17.98L148.03 2.02L154.39 1.75L154.08-15.65L161.30-18.03L161.48 2.02L167.62 1.75L167.26-23.72Z" transform="translate(-1.8834080717489, 34.932735426009)" />
        </g>
      </g>
    </g>
  </g>
</svg>